<?xml version="1.0" encoding="UTF-8" standalone="no"?>
<!-- Uploaded to: SVG Repo, www.svgrepo.com, Generator: SVG Repo Mixer Tools -->

<svg
   fill="#000000"
   width="800"
   height="800"
   viewBox="0 0 24 24"
   version="1.1"
   id="svg2"
   xmlns="http://www.w3.org/2000/svg"
   xmlns:svg="http://www.w3.org/2000/svg">
  <defs
     id="defs2" />
  <path
     d="M 21,5 C 21,3.897 20.103,3 19,3 H 5 C 3.897,3 3,3.897 3,5 v 14 c 0,1.103 0.897,2 2,2 h 14 c 1.103,0 2,-0.897 2,-2 z M 5,19 V 5 h 14 l 0.002,14 z"
     id="path1" />
  <path
     d="M 7,7 H 8.998 V 9 H 7 Z m 4,0 h 6 v 2 h -6 z m -4,4 h 1.998 v 2 H 7 Z m 4,0 h 6 v 2 h -6 z m -4,4 h 1.998 v 2 H 7 Z m 4,0 h 6 v 2 h -6 z"
     id="path2" />
</svg>
